{
  "accessors": [
    {
      "bufferView": 2,
      "componentType": 5126,
      "count": 889,
      "max": [
        6.252429008483887,
        17.51999282836914,
        2.6077163219451904
      ],
      "min": [
        -7.187506675720215,
        -17.645057678222656,
        -2.3807716369628906
      ],
      "type": "VEC3"
    },
    {
      "bufferView": 2,
      "byteOffset": 10668,
      "componentType": 5126,
      "count": 889,
      "max": [
        0.9999983310699463,
        0.9999560713768005,
        0.9999998211860657
      ],
      "min": [
        -0.999997615814209,
        -1.0,
        -0.9999955296516418
      ],
      "type": "VEC3"
    },
    {
      "bufferView": 3,
      "componentType": 5126,
      "count": 889,
      "max": [
        0.9999999403953552,
        0.9999058842658997,
        1.0,
        1.0
      ],
      "min": [
        -1.0,
        -0.999592661857605,
        -0.9999982118606567,
        1.0
      ],
      "type": "VEC4"
    },
    {
      "bufferView": 1,
      "componentType": 5126,
      "count": 889,
      "max": [
        0.9965883493423462,
        0.9979777932167053
      ],
      "min": [
        0.0030331015586853027,
        0.0024069547653198242
      ],
      "type": "VEC2"
    },
    {
      "bufferView": 0,
      "componentType": 5125,
      "count": 4110,
      "type": "SCALAR"
    }
  ],
  "asset": {
    "extras": {
      "author": "Ole Gunnar Isager (https://sketchfab.com/FrenchBaguette)",
      "license": "CC-BY-4.0 (http://creativecommons.org/licenses/by/4.0/)",
      "source": "https://sketchfab.com/3d-models/old-hammer-free-photobashed-gameready-a3d7bc18e2004488a1ae4b89e35d4212",
      "title": "Old Hammer (free - photobashed - gameready)"
    },
    "generator": "Sketchfab-12.65.0",
    "version": "2.0"
  },
  "bufferViews": [
    {
      "buffer": 0,
      "byteLength": 16440,
      "name": "floatBufferViews",
      "target": 34963
    },
    {
      "buffer": 0,
      "byteLength": 7112,
      "byteOffset": 16440,
      "byteStride": 8,
      "name": "floatBufferViews",
      "target": 34962
    },
    {
      "buffer": 0,
      "byteLength": 21336,
      "byteOffset": 23552,
      "byteStride": 12,
      "name": "floatBufferViews",
      "target": 34962
    },
    {
      "buffer": 0,
      "byteLength": 14224,
      "byteOffset": 44888,
      "byteStride": 16,
      "name": "floatBufferViews",
      "target": 34962
    }
  ],
  "buffers": [
    {
      "byteLength": 59112,
      "uri": "scene.bin"
    }
  ],
  "images": [
    {
      "uri": "textures/TEX_Hammer_baseColor.jpeg"
    },
    {
      "uri": "textures/TEX_Hammer_metallicRoughness.png"
    },
    {
      "uri": "textures/TEX_Hammer_normal.png"
    }
  ],
  "materials": [
    {
      "doubleSided": true,
      "name": "TEX_Hammer",
      "normalTexture": {
        "index": 2
      },
      "occlusionTexture": {
        "index": 1
      },
      "pbrMetallicRoughness": {
        "baseColorTexture": {
          "index": 0
        },
        "metallicRoughnessTexture": {
          "index": 1
        }
      }
    }
  ],
  "meshes": [
    {
      "name": "Hammer_low_TEX_Hammer_0",
      "primitives": [
        {
          "attributes": {
            "NORMAL": 1,
            "POSITION": 0,
            "TANGENT": 2,
            "TEXCOORD_0": 3
          },
          "indices": 4,
          "material": 0,
          "mode": 4
        }
      ]
    }
  ],
  "nodes": [
    {
      "children": [
        1
      ],
      "matrix": [
        0.025114667692108128,
        0.0543659575395008,
        -0.005251889680142107,
        0.0,
        0.0,
        -0.0057804915299353036,
        -0.059837884191653146,
        0.0,
        -0.054619043884560625,
        0.0249982972784748,
        -0.0024148988365228995,
        0.0,
        -0.3290949761867523,
        0.3753436803817749,
        -0.04283456876873962,
        1.0
      ],
      "name": "Sketchfab_model"
    },
    {
      "children": [
        2
      ],
      "matrix": [
        1.0,
        0.0,
        0.0,
        0.0,
        0.0,
        0.0,
        1.0,
        0.0,
        0.0,
        -1.0,
        0.0,
        0.0,
        0.0,
        0.0,
        0.0,
        1.0
      ],
      "name": "c919c67f05bc4248b064d8ca008ff062.fbx"
    },
    {
      "children": [
        3
      ],
      "name": "RootNode"
    },
    {
      "children": [
        4
      ],
      "name": "Hammer_low"
    },
    {
      "mesh": 0,
      "name": "Hammer_low_TEX_Hammer_0"
    }
  ],
  "samplers": [
    {
      "magFilter": 9729,
      "minFilter": 9987,
      "wrapS": 10497,
      "wrapT": 10497
    }
  ],
  "scene": 0,
  "scenes": [
    {
      "name": "Sketchfab_Scene",
      "nodes": [
        0
      ]
    }
  ],
  "textures": [
    {
      "sampler": 0,
      "source": 0
    },
    {
      "sampler": 0,
      "source": 1
    },
    {
      "sampler": 0,
      "source": 2
    }
  ]
}
