{
  "accessors": [
    {
      "bufferView": 2,
      "componentType": 5126,
      "count": 5982,
      "max": [
        0.9987139701843262,
        0.9986652731895447,
        0.9989877939224243
      ],
      "min": [
        -0.9987139701843262,
        -0.9986652731895447,
        -0.9989877939224243
      ],
      "type": "VEC3"
    },
    {
      "bufferView": 2,
      "byteOffset": 71784,
      "componentType": 5126,
      "count": 5982,
      "max": [
        0.9999580383300781,
        1.0,
        1.0
      ],
      "min": [
        -0.9999578595161438,
        -1.0,
        -1.0
      ],
      "type": "VEC3"
    },
    {
      "bufferView": 3,
      "componentType": 5126,
      "count": 5982,
      "max": [
        0.9983745217323303,
        1.0,
        0.9986025094985962,
        1.0
      ],
      "min": [
        -0.9981889724731445,
        -0.9991449117660522,
        -0.9985881447792053,
        1.0
      ],
      "type": "VEC4"
    },
    {
      "bufferView": 1,
      "componentType": 5126,
      "count": 5982,
      "max": [
        0.9975211024284363,
        0.99755859375
      ],
      "min": [
        0.00244140625,
        0.00244140625
      ],
      "type": "VEC2"
    },
    {
      "bufferView": 0,
      "componentType": 5125,
      "count": 12480,
      "type": "SCALAR"
    }
  ],
  "asset": {
    "extras": {
      "author": "chiwei (https://sketchfab.com/chiwei2333)",
      "license": "CC-BY-4.0 (http://creativecommons.org/licenses/by/4.0/)",
      "source": "https://sketchfab.com/3d-models/sphere-mirror-4k-materialtest-37c76b996e1040f8a41a0f4bc21f3e76",
      "title": "Sphere-Mirror-4K-MaterialTest"
    },
    "generator": "Sketchfab-14.64.0",
    "version": "2.0"
  },
  "bufferViews": [
    {
      "buffer": 0,
      "byteLength": 49920,
      "name": "floatBufferViews",
      "target": 34963
    },
    {
      "buffer": 0,
      "byteLength": 47856,
      "byteOffset": 49920,
      "byteStride": 8,
      "name": "floatBufferViews",
      "target": 34962
    },
    {
      "buffer": 0,
      "byteLength": 143568,
      "byteOffset": 97776,
      "byteStride": 12,
      "name": "floatBufferViews",
      "target": 34962
    },
    {
      "buffer": 0,
      "byteLength": 95712,
      "byteOffset": 241344,
      "byteStride": 16,
      "name": "floatBufferViews",
      "target": 34962
    }
  ],
  "buffers": [
    {
      "byteLength": 337056,
      "uri": "scene.bin"
    }
  ],
  "images": [
    {
      "uri": "textures/sanjiaodisikeqiu_t_baseColor.png"
    },
    {
      "uri": "textures/sanjiaodisikeqiu_t_metallicRoughness.png"
    },
    {
      "uri": "textures/sanjiaodisikeqiu_t_normal.png"
    }
  ],
  "materials": [
    {
      "doubleSided": true,
      "name": "sanjiaodisikeqiu_t",
      "normalTexture": {
        "index": 2
      },
      "occlusionTexture": {
        "index": 1
      },
      "pbrMetallicRoughness": {
        "baseColorTexture": {
          "index": 0
        },
        "metallicRoughnessTexture": {
          "index": 1
        }
      }
    }
  ],
  "meshes": [
    {
      "name": "sanjiaodisikeqiu_sanjiaodisikeqiu_t_0",
      "primitives": [
        {
          "attributes": {
            "NORMAL": 1,
            "POSITION": 0,
            "TANGENT": 2,
            "TEXCOORD_0": 3
          },
          "indices": 4,
          "material": 0,
          "mode": 4
        }
      ]
    }
  ],
  "nodes": [
    {
      "children": [
        1
      ],
      "matrix": [
        1.0,
        0.0,
        0.0,
        0.0,
        0.0,
        2.220446049250313e-16,
        -1.0,
        0.0,
        0.0,
        1.0,
        2.220446049250313e-16,
        0.0,
        0.0,
        0.0,
        0.0,
        1.0
      ],
      "name": "Sketchfab_model"
    },
    {
      "children": [
        2
      ],
      "matrix": [
        0.009999999776482582,
        0.0,
        0.0,
        0.0,
        0.0,
        0.0,
        0.009999999776482582,
        0.0,
        0.0,
        -0.009999999776482582,
        0.0,
        0.0,
        0.0,
        0.0,
        0.0,
        1.0
      ],
      "name": "11d0e96eb8a548058689e0e99eeb5953.fbx"
    },
    {
      "children": [
        3
      ],
      "name": "RootNode"
    },
    {
      "children": [
        4
      ],
      "matrix": [
        10.0,
        0.0,
        0.0,
        0.0,
        0.0,
        10.0,
        0.0,
        0.0,
        0.0,
        0.0,
        10.0,
        0.0,
        0.0,
        0.0,
        0.0,
        1.0
      ],
      "name": "sanjiaodisikeqiu"
    },
    {
      "mesh": 0,
      "name": "sanjiaodisikeqiu_sanjiaodisikeqiu_t_0"
    }
  ],
  "samplers": [
    {
      "magFilter": 9729,
      "minFilter": 9987,
      "wrapS": 10497,
      "wrapT": 10497
    }
  ],
  "scene": 0,
  "scenes": [
    {
      "name": "Sketchfab_Scene",
      "nodes": [
        0
      ]
    }
  ],
  "textures": [
    {
      "sampler": 0,
      "source": 0
    },
    {
      "sampler": 0,
      "source": 1
    },
    {
      "sampler": 0,
      "source": 2
    }
  ]
}
